<?xml version="1.0" encoding="UTF-8" standalone="no"?>
<svg
   xmlns:dc="http://purl.org/dc/elements/1.1/"
   xmlns:cc="http://creativecommons.org/ns#"
   xmlns:rdf="http://www.w3.org/1999/02/22-rdf-syntax-ns#"
   xmlns:svg="http://www.w3.org/2000/svg"
   xmlns="http://www.w3.org/2000/svg"
   xmlns:sodipodi="http://sodipodi.sourceforge.net/DTD/sodipodi-0.dtd"
   xmlns:inkscape="http://www.inkscape.org/namespaces/inkscape"
   id="mb-stern_x5F_10"
   viewBox="0 0 64 64"
   width="2500"
   height="2500"
   version="1.1"
   sodipodi:docname="MB.svg"
   inkscape:version="0.92.4 (5da689c313, 2019-01-14)">
  <metadata
     id="metadata239">
    <rdf:RDF>
      <cc:Work
         rdf:about="">
        <dc:format>image/svg+xml</dc:format>
        <dc:type
           rdf:resource="http://purl.org/dc/dcmitype/StillImage" />
        <dc:title></dc:title>
      </cc:Work>
    </rdf:RDF>
  </metadata>
  <defs
     id="defs237" />
  <sodipodi:namedview
     pagecolor="#ffffff"
     bordercolor="#666666"
     borderopacity="1"
     objecttolerance="10"
     gridtolerance="10"
     guidetolerance="10"
     inkscape:pageopacity="0"
     inkscape:pageshadow="2"
     inkscape:window-width="640"
     inkscape:window-height="480"
     id="namedview235"
     showgrid="false"
     inkscape:zoom="0.28702954"
     inkscape:cx="1257.3619"
     inkscape:cy="1962.0447"
     inkscape:current-layer="mb-stern_x5F_10" />
  <style
     id="style2">.st0{fill:url(#outer_1_)}.st1{fill:url(#SVGID_1_)}.st2{opacity:.4;fill:url(#SVGID_2_);enable-background:new}.st3{fill:#fff}.st4{opacity:.4;fill:url(#SVGID_3_);enable-background:new}.st5{fill:#565f64}.st6{fill:url(#SVGID_4_)}.st7{fill:#a4aaae;fill-opacity:.6}.st8{fill:#333e46}.st9{fill:url(#SVGID_5_)}.st10{fill:url(#SVGID_6_);fill-opacity:.8}.st11{opacity:.8;fill:url(#SVGID_7_);enable-background:new}.st12{fill:url(#SVGID_8_)}.st13{fill:url(#SVGID_9_)}.st14{fill:url(#SVGID_10_)}.st15{fill:url(#SVGID_11_)}.st16{fill:url(#SVGID_12_)}.st17{fill:url(#SVGID_13_)}.st18{fill:url(#SVGID_14_)}.st19{fill:#fbfbfb}.st20{fill:#333f47}</style>
  <linearGradient
     id="outer_1_"
     gradientUnits="userSpaceOnUse"
     x1="7.998"
     y1="54.102"
     x2="56.002"
     y2="13.898"
     gradientTransform="matrix(1,0,0,-1,0,66)">
    <stop
       offset="0"
       stop-color="#fff"
       id="stop4" />
    <stop
       offset=".1"
       stop-color="#e7e8e6"
       id="stop6" />
    <stop
       offset=".1"
       stop-color="#cdd0d0"
       id="stop8" />
    <stop
       offset=".2"
       stop-color="#b5bbbd"
       id="stop10" />
    <stop
       offset=".2"
       stop-color="#a5acaf"
       id="stop12" />
    <stop
       offset=".3"
       stop-color="#9ba3a7"
       id="stop14" />
    <stop
       offset=".3"
       stop-color="#98a0a4"
       id="stop16" />
    <stop
       offset=".4"
       stop-color="#828a8f"
       id="stop18" />
    <stop
       offset=".5"
       stop-color="#667075"
       id="stop20" />
    <stop
       offset=".6"
       stop-color="#535c63"
       id="stop22" />
    <stop
       offset=".7"
       stop-color="#475158"
       id="stop24" />
    <stop
       offset=".8"
       stop-color="#434d54"
       id="stop26" />
    <stop
       offset="1"
       stop-color="#475157"
       id="stop28" />
  </linearGradient>
  <linearGradient
     id="SVGID_1_"
     gradientUnits="userSpaceOnUse"
     x1="9.471"
     y1="52.941"
     x2="54.471"
     y2="15.141"
     gradientTransform="matrix(1,0,0,-1,0,66)">
    <stop
       offset="0"
       stop-color="#0b1f2a"
       id="stop32" />
    <stop
       offset=".2"
       stop-color="#333f47"
       id="stop34" />
    <stop
       offset=".5"
       stop-color="#777f84"
       id="stop36" />
    <stop
       offset=".5"
       stop-color="#81898d"
       id="stop38" />
    <stop
       offset=".7"
       stop-color="#b3b8b8"
       id="stop40" />
    <stop
       offset=".8"
       stop-color="#d2d5d3"
       id="stop42" />
    <stop
       offset=".8"
       stop-color="#dee0dd"
       id="stop44" />
    <stop
       offset="1"
       stop-color="#fbfbfb"
       id="stop46" />
  </linearGradient>
  <linearGradient
     id="SVGID_2_"
     gradientUnits="userSpaceOnUse"
     x1="1648.736"
     y1="-160.944"
     x2="1670.636"
     y2="-221.143"
     gradientTransform="matrix(-1,0,0,1,1691.673,223.007)">
    <stop
       offset="0"
       stop-color="#e1e3e1"
       id="stop51" />
    <stop
       offset=".1"
       stop-color="#c1c5c4"
       id="stop53" />
    <stop
       offset=".3"
       stop-color="#9ba1a2"
       id="stop55" />
    <stop
       offset=".5"
       stop-color="#7d8487"
       id="stop57" />
    <stop
       offset=".7"
       stop-color="#687074"
       stop-opacity="0"
       id="stop59" />
    <stop
       offset=".8"
       stop-color="#5b6469"
       stop-opacity="0"
       id="stop61" />
    <stop
       offset="1"
       stop-color="#576065"
       stop-opacity="0"
       id="stop63" />
  </linearGradient>
  <linearGradient
     id="SVGID_3_"
     gradientUnits="userSpaceOnUse"
     x1="18.201"
     y1="57.899"
     x2="45.799"
     y2="10.101"
     gradientTransform="matrix(1,0,0,-1,0,66)">
    <stop
       offset="0"
       stop-color="#e1e3e1"
       id="stop70" />
    <stop
       offset=".1"
       stop-color="#c1c5c4"
       id="stop72" />
    <stop
       offset=".3"
       stop-color="#9ba1a2"
       id="stop74" />
    <stop
       offset=".5"
       stop-color="#7d8487"
       id="stop76" />
    <stop
       offset=".7"
       stop-color="#687074"
       stop-opacity="0"
       id="stop78" />
    <stop
       offset=".8"
       stop-color="#5b6469"
       stop-opacity="0"
       id="stop80" />
    <stop
       offset="1"
       stop-color="#576065"
       stop-opacity="0"
       id="stop82" />
  </linearGradient>
  <linearGradient
     id="SVGID_4_"
     gradientUnits="userSpaceOnUse"
     x1="44.488"
     y1="26.607"
     x2="42.788"
     y2="23.807"
     gradientTransform="matrix(1,0,0,-1,0,66)">
    <stop
       offset="0"
       stop-color="#27343c"
       id="stop91" />
    <stop
       offset="1"
       stop-color="#00111e"
       stop-opacity="0"
       id="stop93" />
  </linearGradient>
  <linearGradient
     id="SVGID_5_"
     gradientUnits="userSpaceOnUse"
     x1="39.58"
     y1="36.888"
     x2="36.78"
     y2="41.388"
     gradientTransform="matrix(1,0,0,-1,0,66)">
    <stop
       offset=".1"
       stop-color="#02131f"
       id="stop108" />
    <stop
       offset=".9"
       stop-color="#02131f"
       stop-opacity="0"
       id="stop110" />
  </linearGradient>
  <linearGradient
     id="SVGID_6_"
     gradientUnits="userSpaceOnUse"
     x1="31.982"
     y1="29.664"
     x2="27.782"
     y2="28.464"
     gradientTransform="matrix(1,0,0,-1,0,66)">
    <stop
       offset=".2"
       stop-color="#02131f"
       id="stop115" />
    <stop
       offset=".9"
       stop-color="#02131f"
       stop-opacity="0"
       id="stop117" />
  </linearGradient>
  <linearGradient
     id="SVGID_7_"
     gradientUnits="userSpaceOnUse"
     x1="20.791"
     y1="24.096"
     x2="20.191"
     y2="25.596"
     gradientTransform="matrix(1,0,0,-1,0,66)">
    <stop
       offset="0"
       stop-color="#02131f"
       id="stop122" />
    <stop
       offset=".1"
       stop-color="#02131f"
       id="stop124" />
    <stop
       offset="1"
       stop-color="#02131f"
       stop-opacity="0"
       id="stop126" />
  </linearGradient>
  <linearGradient
     id="SVGID_8_"
     gradientUnits="userSpaceOnUse"
     x1="35.602"
     y1="48.786"
     x2="32.202"
     y2="48.386"
     gradientTransform="matrix(1,0,0,-1,0,66)">
    <stop
       offset=".3"
       stop-color="#02131f"
       id="stop131" />
    <stop
       offset=".3"
       stop-color="#02131f"
       id="stop133" />
    <stop
       offset=".8"
       stop-color="#02131f"
       stop-opacity="0"
       id="stop135" />
  </linearGradient>
  <linearGradient
     id="SVGID_9_"
     gradientUnits="userSpaceOnUse"
     x1="35.708"
     y1="48.843"
     x2="33.407"
     y2="48.543"
     gradientTransform="matrix(1,0,0,-1,0,66)">
    <stop
       offset=".4"
       stop-color="#27343c"
       id="stop140" />
    <stop
       offset="1"
       stop-color="#3b474e"
       stop-opacity="0"
       id="stop142" />
  </linearGradient>
  <linearGradient
     id="SVGID_10_"
     gradientUnits="userSpaceOnUse"
     x1="-.36"
     y1="33.169"
     x2="27.54"
     y2="17.069"
     gradientTransform="matrix(1,0,0,-1,0,66)">
    <stop
       offset="0"
       stop-color="#24303a"
       stop-opacity="0"
       id="stop147" />
    <stop
       offset="0"
       stop-color="#25323b"
       stop-opacity="0"
       id="stop149" />
    <stop
       offset=".1"
       stop-color="#27343c"
       id="stop151" />
  </linearGradient>
  <linearGradient
     id="SVGID_11_"
     gradientUnits="userSpaceOnUse"
     x1="31.95"
     y1="28.6"
     x2="31.95"
     y2="33.4"
     gradientTransform="matrix(1,0,0,-1,0,66)">
    <stop
       offset=".3"
       stop-color="#a5abaf"
       id="stop156" />
    <stop
       offset="1"
       stop-color="#a5abaf"
       stop-opacity="0"
       id="stop158" />
  </linearGradient>
  <linearGradient
     id="SVGID_12_"
     gradientUnits="userSpaceOnUse"
     x1="47.65"
     y1="63.7"
     x2="47.65"
     y2="2.7"
     gradientTransform="matrix(1,0,0,-1,0,66)">
    <stop
       offset="0"
       stop-color="#dee0dd"
       id="stop163" />
    <stop
       offset="0"
       stop-color="#c5c9c7"
       id="stop165" />
    <stop
       offset="0"
       stop-color="#9ea4a5"
       id="stop167" />
    <stop
       offset="0"
       stop-color="#82898c"
       id="stop169" />
    <stop
       offset="0"
       stop-color="#71797d"
       id="stop171" />
    <stop
       offset="0"
       stop-color="#6b7378"
       id="stop173" />
    <stop
       offset=".2"
       stop-color="#333f47"
       id="stop175" />
    <stop
       offset=".5"
       stop-color="#27343c"
       id="stop177" />
    <stop
       offset=".8"
       stop-color="#333f47"
       id="stop179" />
    <stop
       offset="1"
       stop-color="#434d54"
       id="stop181" />
  </linearGradient>
  <linearGradient
     id="SVGID_13_"
     gradientUnits="userSpaceOnUse"
     x1="32"
     y1="65.3"
     x2="32.3"
     y2="65.3"
     gradientTransform="matrix(1,0,0,-1,0,66)">
    <stop
       offset="0"
       stop-color="#dee0dd"
       id="stop186" />
    <stop
       offset="0"
       stop-color="#c5c9c7"
       id="stop188" />
    <stop
       offset="0"
       stop-color="#9ea4a5"
       id="stop190" />
    <stop
       offset="0"
       stop-color="#82898c"
       id="stop192" />
    <stop
       offset="0"
       stop-color="#71797d"
       id="stop194" />
    <stop
       offset="0"
       stop-color="#6b7378"
       id="stop196" />
    <stop
       offset=".2"
       stop-color="#333f47"
       id="stop198" />
    <stop
       offset=".5"
       stop-color="#27343c"
       id="stop200" />
    <stop
       offset=".8"
       stop-color="#333f47"
       id="stop202" />
    <stop
       offset="1"
       stop-color="#434d54"
       id="stop204" />
  </linearGradient>
  <linearGradient
     id="SVGID_14_"
     gradientUnits="userSpaceOnUse"
     x1="57.289"
     y1="57.907"
     x2="43.789"
     y2="38.107"
     gradientTransform="matrix(1,0,0,-1,0,66)">
    <stop
       offset=".7"
       stop-color="#27343c"
       id="stop209" />
    <stop
       offset=".7"
       stop-color="#2b373f"
       id="stop211" />
    <stop
       offset=".7"
       stop-color="#36424a"
       id="stop213" />
    <stop
       offset=".7"
       stop-color="#49545b"
       id="stop215" />
    <stop
       offset=".8"
       stop-color="#646d73"
       stop-opacity="0"
       id="stop217" />
    <stop
       offset=".8"
       stop-color="#868d92"
       stop-opacity="0"
       id="stop219" />
    <stop
       offset=".8"
       stop-color="#b0b5b8"
       stop-opacity="0"
       id="stop221" />
    <stop
       offset=".8"
       stop-color="#e1e3e4"
       stop-opacity="0"
       id="stop223" />
    <stop
       offset=".8"
       stop-color="#fff"
       stop-opacity="0"
       id="stop225" />
  </linearGradient>
  <path
     inkscape:connector-curvature="0"
     style="fill:url(#outer_1_)"
     id="outer_24_"
     class="st0"
     d="M 63.3,32 C 63.3,49.3 49.3,63.3 32,63.3 14.7,63.3 0.7,49.3 0.7,32 0.7,14.7 14.7,0.7 32,0.7 49.3,0.7 63.3,14.7 63.3,32 Z M 32,2.6 C 15.7,2.6 2.6,15.7 2.6,32 2.6,48.3 15.8,61.4 32,61.4 48.3,61.4 61.4,48.2 61.4,32 61.4,15.7 48.3,2.6 32,2.6 Z" />
  <path
     inkscape:connector-curvature="0"
     style="fill:url(#SVGID_1_)"
     class="st1"
     d="M 32,2.6 C 15.7,2.6 2.6,15.7 2.6,32 2.6,48.3 15.8,61.4 32,61.4 48.3,61.4 61.4,48.2 61.4,32 61.4,15.7 48.3,2.6 32,2.6 Z m 0,56.9 C 16.8,59.5 4.5,47.2 4.5,32 4.5,16.8 16.8,4.5 32,4.5 47.2,4.5 59.5,16.8 59.5,32 59.5,47.2 47.2,59.5 32,59.5 Z"
     id="path49" />
  <path
     inkscape:connector-curvature="0"
     style="opacity:0.4;fill:#000000;enable-background:new"
     class="st2"
     d="M 32,63.3 C 49.3,63.3 63.3,49.3 63.3,32 63.3,14.7 49.3,0.7 32,0.7 14.7,0.7 0.7,14.7 0.7,32 0.7,49.3 14.7,63.3 32,63.3 Z M 32,0 C 49.6,0 64,14.4 64,32 64,49.6 49.6,64 32,64 14.4,64 0,49.6 0,32 0,14.4 14.4,0 32,0 Z"
     id="path66" />
  <path
     style="fill:#ffffff"
     inkscape:connector-curvature="0"
     class="st3"
     d="M 2.2,32.1 C 2.2,15.7 15.5,2.2 32,2.2 48.5,2.2 61.8,15.6 61.8,32.1 61.8,48.5 48.5,61.8 32,61.8 15.5,61.8 2.2,48.5 2.2,32.1 Z m 9.3,-20.6 c -5.3,5.3 -8.6,12.6 -8.6,20.6 0,8 3.3,15.3 8.5,20.5 5.3,5.2 12.6,8.5 20.6,8.5 8,0 15.3,-3.2 20.5,-8.5 C 57.8,47.4 61,40.1 61,32.1 61,24.1 57.7,16.8 52.5,11.5 47.3,6.2 40,2.9 32,2.9 24,2.9 16.7,6.2 11.5,11.5 Z"
     id="path68" />
  <path
     inkscape:connector-curvature="0"
     style="opacity:0.4;fill:#000000;enable-background:new"
     class="st4"
     d="M 32,59.6 C 24.6,59.6 17.7,56.7 12.5,51.5 7.3,46.3 4.4,39.4 4.4,32 4.4,24.6 7.3,17.7 12.5,12.5 17.7,7.3 24.6,4.4 32,4.4 c 7.4,0 14.3,2.9 19.5,8.1 5.2,5.2 8.1,12.1 8.1,19.5 0,7.4 -2.9,14.3 -8.1,19.5 -5.2,5.2 -12.1,8.1 -19.5,8.1 z m 0,-0.8 C 39.1,58.8 45.9,56 50.9,51 56,45.9 58.7,39.2 58.7,32.1 58.7,25 55.9,18.2 50.9,13.2 45.8,8.1 39.1,5.4 32,5.4 24.9,5.4 18.1,8.2 13.1,13.2 8,18.1 5.2,24.9 5.2,32 c 0,7.1 2.8,13.9 7.8,18.9 5.1,5.1 11.9,7.9 19,7.9 z"
     id="path85" />
  <path
     style="fill:#ffffff"
     inkscape:connector-curvature="0"
     class="st3"
     d="M 56.3,45 C 55.8,44.6 36.5,29.3 36.5,29.3 L 32,3.6 C 31.7,3.7 31.3,4 31.1,4.4 L 27.9,29.4 8,44.7 c 0,0 -0.4,0.5 -0.6,0.8 C 7.3,45.7 7.3,46 7.3,46.3 L 31.9,36.2 56.5,46.3 c 0.2,-0.5 0,-1 -0.2,-1.3 z"
     id="path87" />
  <path
     style="fill:#565f64"
     inkscape:connector-curvature="0"
     class="st5"
     d="m 32.2,32.8 -0.2,4.6 22.6,9.1 c 0.8,0.4 1.4,0.2 2,-0.2 L 32.5,32.7 c -0.1,-0.1 -0.3,0 -0.3,0.1 z"
     id="path89" />
  <path
     inkscape:connector-curvature="0"
     style="fill:url(#SVGID_4_)"
     class="st6"
     d="m 32.2,32.8 c 0,0 1.3,2.3 2.8,3.9 2.1,2.3 4.9,3.9 4.9,3.9 l 14.7,5.9 c 0.8,0.4 1.4,0.2 2,-0.2 L 32.5,32.7 c -0.1,-0.1 -0.3,0 -0.3,0.1 z"
     id="path96" />
  <path
     style="fill:#a4aaae;fill-opacity:0.6"
     inkscape:connector-curvature="0"
     class="st7"
     d="m 56.5,45.4 c 0,-0.1 -0.1,-0.2 -0.2,-0.4 L 35.7,29.9 32.9,31.7 c 0,0 0.2,0.1 0.3,0 0.3,-0.1 0.9,-0.2 1.5,0 0.5,0.2 21.8,13.8 21.8,13.7 0,0.1 0,0.1 0,0 z"
     id="path98" />
  <path
     style="fill:#333e46"
     inkscape:connector-curvature="0"
     class="st8"
     d="M 55.8,44.5 36.6,29.3 35.7,29.9 56.3,45.1 C 56.2,44.9 56,44.7 55.8,44.5 Z"
     id="path100" />
  <path
     style="fill:#565f64"
     inkscape:connector-curvature="0"
     class="st5"
     d="m 32.5,31.3 -0.1,0.1 c 0,0 0,0.2 0.2,0.1 0.1,-0.1 3,-1.6 4,-2.2 L 33.1,5.3 C 33,4.4 32.6,4 31.9,3.7 l 0.4,27.8 z"
     id="path102" />
  <path
     style="fill:#a4aaae;fill-opacity:0.6"
     inkscape:connector-curvature="0"
     class="st7"
     d="m 30.8,5.3 v 1.3 l -2.2,22.1 c 0,0.3 0.1,0.6 0.4,0.8 l 1.3,1 0.9,-24.4 0.1,-1.9 C 31,4.4 30.9,4.8 30.8,5.3 Z m -1.2,25.6 -1.2,-1 -20.3,14.7 c 0,0 -0.6,0.4 -0.7,0.8 L 8.1,45 29.4,31.6 c 0.4,-0.2 0.5,-0.4 0.2,-0.7 z"
     id="path104" />
  <path
     style="fill:#565f64"
     inkscape:connector-curvature="0"
     class="st5"
     d="m 31.7,32.8 c 0,-0.1 -0.1,-0.2 -0.2,-0.1 L 7.3,46.4 c 0.6,0.4 1.2,0.5 2,0.2 l 22.6,-9.1 z"
     id="path106" />
  <path
     inkscape:connector-curvature="0"
     style="fill:url(#SVGID_5_)"
     class="st9"
     d="m 32.4,31.4 0.1,-0.1 -0.1,0.1 c 0,0 0,0.1 0.1,0.1 h 0.1 c 0.1,-0.1 3,-1.6 4,-2.2 L 36.2,26.4 33.1,5.3 c 0,-0.4 -0.1,-0.7 -0.3,-0.9 0,0 1.5,20.2 1.5,22.4 0,2.9 -1.9,4.6 -1.9,4.6 z"
     id="path113" />
  <path
     inkscape:connector-curvature="0"
     style="fill:url(#SVGID_6_);fill-opacity:0.8"
     class="st10"
     d="m 31.7,32.8 c 0,-0.1 -0.1,-0.2 -0.2,-0.1 L 7.3,46.4 c 0.6,0.4 1.2,0.5 2,0.2 l 22.6,-9.1 z"
     id="path120" />
  <path
     inkscape:connector-curvature="0"
     style="opacity:0.8;fill:url(#SVGID_7_);enable-background:new"
     class="st11"
     d="M 9.3,46.5 31.9,37.4 31.7,33 c -0.4,1.2 -1.1,2.5 -3,3.5 -1.4,0.8 -14.8,7.4 -19.6,9.7 -0.3,0.2 -0.7,0.3 -0.9,0.4 0.4,0.2 0.7,0.1 1.1,-0.1 z"
     id="path129" />
  <path
     inkscape:connector-curvature="0"
     style="fill:url(#SVGID_8_)"
     class="st12"
     d="m 32.5,31.3 -0.1,0.1 c 0,0 0,0.2 0.2,0.1 0.1,-0.1 3,-1.6 4,-2.2 L 33.1,5.3 C 33,4.4 32.6,4 31.9,3.7 l 0.4,27.8 z"
     id="path138" />
  <path
     inkscape:connector-curvature="0"
     style="fill:url(#SVGID_9_)"
     class="st13"
     d="m 32.5,31.3 -0.1,0.1 c 0,0 0,0.2 0.2,0.1 0.1,-0.1 3,-1.6 4,-2.2 L 33.1,5.3 C 33,4.4 32.6,4 31.9,3.7 l 0.4,27.8 z"
     id="path145" />
  <path
     inkscape:connector-curvature="0"
     style="fill:url(#SVGID_10_)"
     class="st14"
     d="M 5.1,44.4 C 4.4,42.8 0.4,35 4.8,20 H 3.1 c -0.9,3 -1.6,4.8 -2,7.5 0,0 -0.2,1 -0.3,2.1 -0.1,1.1 -0.1,1.7 -0.1,2.4 0,6 1.5,9.5 1.5,9.5 1.6,5 4.4,9.5 8.2,12.9 3.3,2.9 8.4,5.1 12.6,5.9 C 22.3,60.2 10.3,55.1 5.1,44.4 Z"
     id="path154" />
  <path
     inkscape:connector-curvature="0"
     style="fill:url(#SVGID_11_)"
     class="st15"
     d="m 32.4,32.6 h -0.9 c 0.1,0 0.2,0 0.2,0.1 l 0.2,4.6 H 32 l 0.2,-4.6 c 0,-0.1 0.1,-0.2 0.2,-0.1 z"
     id="path161" />
  <path
     inkscape:connector-curvature="0"
     style="fill:url(#SVGID_12_)"
     class="st16"
     d="m 42,2.3 c 10.5,4 20.4,15 20.4,28.9 C 62.4,48 49,61.7 32,61.7 v 1.6 C 49,63.3 63.3,49.3 63.3,32 63.3,18.2 54.5,6.6 42,2.3 Z"
     id="path184" />
  <path
     inkscape:connector-curvature="0"
     style="fill:url(#SVGID_13_)"
     class="st17"
     d="M 32.3,0.7 H 32 Z"
     id="path207" />
  <path
     inkscape:connector-curvature="0"
     style="fill:url(#SVGID_14_)"
     class="st18"
     d="M 58.8,20.2 C 51.8,4.1 36,3.2 35.1,3.1 H 35 c 12.1,2.2 19.8,10.1 22.5,18.4 v 0.1 c 1.2,3.2 1.8,6.6 1.9,10.3 0.1,3.5 -0.7,7.4 -2.2,11 C 57.1,43.4 57,44 56.9,44 h 1.6 c 4.8,-9 2.7,-18.1 0.3,-23.8 z"
     id="path228" />
  <path
     style="fill:#fbfbfb"
     inkscape:connector-curvature="0"
     class="st19"
     d="M 2.2,32.1 C 2.2,15.7 15.5,2.2 32,2.2 48.5,2.2 61.8,15.6 61.8,32.1 61.8,48.5 48.5,61.8 32,61.8 15.5,61.8 2.2,48.5 2.2,32.1 Z m 9.3,-20.6 c -5.3,5.3 -8.6,12.6 -8.6,20.6 0,8 3.3,15.3 8.5,20.5 5.3,5.2 12.6,8.5 20.6,8.5 8,0 15.3,-3.2 20.5,-8.5 C 57.8,47.4 61,40.1 61,32.1 61,24.1 57.7,16.8 52.5,11.5 47.3,6.2 40,2.9 32,2.9 24,2.9 16.7,6.2 11.5,11.5 Z"
     id="path230" />
  <path
     style="fill:#333f47"
     inkscape:connector-curvature="0"
     class="st20"
     d="M 7.9,44.8 28.3,30.1 c 1.1,0.6 2.9,1.4 3.1,1.4 0.2,0.1 0.2,-0.1 0.2,-0.1 L 29.1,29.3 C 28.8,29.1 28.7,28.8 28.7,28.5 L 31.1,4.4 C 31,4.5 31,4.7 30.9,4.8 30.8,5 30.8,5.1 30.8,5.3 L 27.3,29.4 8.1,44.5 C 8,44.6 7.9,44.7 7.9,44.8 Z"
     id="path232" />
</svg>
