<?xml version="1.0" encoding="UTF-8" standalone="no"?>
<!-- Created with Inkscape (http://www.inkscape.org/) -->

<svg
   width="563.49969mm"
   height="98.242798mm"
   viewBox="0 0 563.49969 98.242795"
   version="1.1"
   id="svg5"
   inkscape:version="1.1 (c68e22c387, 2021-05-23)"
   sodipodi:docname="webdispecink1.svg"
   xmlns:inkscape="http://www.inkscape.org/namespaces/inkscape"
   xmlns:sodipodi="http://sodipodi.sourceforge.net/DTD/sodipodi-0.dtd"
   xmlns="http://www.w3.org/2000/svg"
   xmlns:svg="http://www.w3.org/2000/svg">
  <sodipodi:namedview
     id="namedview7"
     pagecolor="#ffffff"
     bordercolor="#666666"
     borderopacity="1.0"
     inkscape:pageshadow="2"
     inkscape:pageopacity="0.0"
     inkscape:pagecheckerboard="0"
     inkscape:document-units="mm"
     showgrid="false"
     fit-margin-top="0"
     fit-margin-left="0"
     fit-margin-right="0"
     fit-margin-bottom="0"
     inkscape:zoom="0.67081229"
     inkscape:cx="1269.3566"
     inkscape:cy="608.9632"
     inkscape:current-layer="layer1" />
  <defs
     id="defs2" />
  <g
     inkscape:label="Vrstva 1"
     inkscape:groupmode="layer"
     id="layer1"
     transform="translate(87.731354,-72.695158)">
    <path
       style="fill:#000000;stroke-width:1"
       id="path9650"
       d="" />
    <path
       style="fill:#000000;stroke-width:1"
       id="path9486"
       d="" />
    <path
       id="path9902"
       style="fill:#299f54;fill-opacity:1;stroke-width:1"
       d="m -17.876483,164.99596 c -7.5309,-0.71353 -15.76192,-3.48956 -21.22086,-7.15705 -2.48553,-1.66986 -6.80628,-6.11588 -8.13259,-8.36838 -1.44708,-2.45759 -2.39132,-5.45524 -2.58562,-8.20847 -0.0848,-1.20112 -0.21014,-2.18385 -0.27862,-2.18385 -0.0685,0 -3.85125,2.32179 -8.40615,5.15953 -4.55489,2.83775 -8.44001,5.22025 -8.63358,5.29445 -0.32729,0.12546 -7.69349,-4.92928 -7.81545,-5.36301 -0.0447,-0.15912 33.62104,-20.1334 98.34765,-58.350744 l 7.0787,-4.17957 3.33992,1.38612 c 1.83696,0.76237 3.33993,1.46894 3.33993,1.57017 0,0.10122 -1.99091,1.41413 -4.42424,2.91759 -5.05867,3.12553 -5.05824,2.80898 -0.005,3.40773 4.69887,0.55671 10.99762,2.46537 15.254295,4.62239 2.27485,1.15275 5.95689,3.77138 7.71523,5.486974 1.97007,1.92219 3.14656,3.53567 4.16456,5.71143 0.63251,1.35187 0.70802,1.8229 0.70913,4.4234 10e-4,2.76786 -0.0424,2.99961 -0.88899,4.73158 -2.60323,5.32553 -9.40199,9.03497 -18.855805,10.28784 l -2.46298,0.32641 8.731085,4.82299 c 4.80211,2.65264 8.94416,4.97878 9.20457,5.16919 0.42794,0.31292 0.16678,0.58125 -2.71614,2.79068 -1.75429,1.34446 -3.35895,2.50945 -3.56593,2.58888 -0.40141,0.15403 -50.74336509,-28.99498 -50.62986509,-29.31571 0.0366,-0.10343 1.47321996,-1.09055 3.19247999,-2.1936 l 3.12593,-2.00553 6.3990701,3.54074 c 8.27134,4.5767 10.72917,5.54139 16.02627,6.29029 3.02721,0.42798 8.84198,0.16511 11.35478,-0.51333 6.252235,-1.68805 9.964165,-5.3323 9.492005,-9.31893 -0.37303,-3.14964 -3.14562,-6.36054 -7.606095,-8.808494 -3.70623,-2.03401 -10.18504,-3.60871 -14.83205,-3.605 -3.73882,0.003 -8.27692,0.94657 -10.83703,2.25327 -0.49665,0.25349 -11.0828301,6.783334 -23.5248601,14.510754 -20.0621199,12.46007 -22.8315999,14.25993 -24.4753299,15.90621 -3.18697,3.19194 -4.70063,7.0916 -4.09199,10.54226 1.39143,7.8886 10.14201,13.65121 21.42357,14.10828 12.4258099,0.50343 22.7943699,-5.4529 24.3690601,-13.99908 0.6575499,-3.56866 -0.7416002,-7.25675 -3.9942202,-10.52854 -1.63692,-1.64656 -3.13781,-2.70924 -8.53291,-6.04158 -3.60064,-2.22396 -6.59486,-4.12283 -6.65382,-4.2197 -0.059,-0.0969 1.44311,-1.16105 3.33794,-2.36483 l 3.44516,-2.1887 1.52076,0.86578 c 4.57431,2.60419 48.9364151,28.93255 48.9376751,29.04391 0.002,0.18168 -6.759035,5.26678 -7.256425,5.45765 -0.2437,0.0935 -3.6552,-1.87304 -8.73159,-5.03333 -4.58239,-2.85275 -8.37572,-5.18682 -8.42962,-5.18682 -0.0539,0 -0.16735,0.98273 -0.25212,2.18385 -0.19459,2.75735 -1.14189,5.76137 -2.58037,8.18269 -1.39705,2.35158 -4.49433,5.63492 -7.25766,7.69365 -2.74954,2.04844 -8.2216201,4.70566 -12.04686013,5.8499 -5.85081997,1.75014 -13.20636987,2.53625 -18.78541987,2.00766 z m -63.16927,-25.02076 c -1.92815,-1.38018 -3.50149,-2.5931 -3.49632,-2.69539 0.005,-0.10229 4.30343,-2.56723 9.55167,-5.47764 l 9.54226,-5.29167 -2.4315,-0.32641 c -10.35814,-1.39049 -17.467,-5.72302 -19.36457,-11.80185 -1.38217,-4.42774 0.19831,-9.13092 4.46847,-13.29729 5.40643,-5.275014 14.05204,-9.039734 23.58239,-10.268924 1.79598,-0.23163 3.45338,-0.42116 3.68312,-0.42116 0.22974,0 -1.59689,-1.25069 -4.05917,-2.77932 -2.46228,-1.52863 -4.51007,-2.87839 -4.55065,-2.99945 -0.0406,-0.12107 1.34832,-0.89289 3.08644,-1.71516 l 3.16021,-1.49503 15.69898,9.27823 c 8.63444,5.10302 15.98161,9.459664 16.32705,9.681424 0.61798,0.39671 0.57455,0.43252 -2.70161,2.22771 -1.83132,1.00349 -3.48934,1.82452 -3.68449,1.82452 -0.19514,0 -2.3727,-1.26683 -4.83901,-2.81517 -2.46632,-1.54835 -5.19858,-3.152964 -6.07171,-3.565824 -8.83344,-4.17688 -23.31176,-1.74436 -29.92935,5.028454 -4.61698,4.72528 -3.54044,10.09585 2.63027,13.12171 2.8202,1.38291 5.57718,2.00871 9.59972,2.17904 4.96275,0.21014 9.20844,-0.48665 13.59262,-2.23078 1.90069,-0.75614 46.34331991,-25.336914 47.75097987,-26.410584 0.48274,-0.36821 1.19911003,-1.13324 1.59193003,-1.70007 3.48877,-5.03431 -3.4782,-10.52148 -14.0153399,-11.03844 -8.28952,-0.40668 -15.98734,2.45602 -17.71304,6.58722 -0.58825,1.40823 -0.51028,2.4663 0.2901,3.93687 0.93343,1.71501 2.04873,2.53276 7.72324,5.66278 2.6382,1.45521 4.76371,2.75041 4.72335,2.87823 -0.0403,0.12782 -1.46408,0.99783 -3.16382,1.93335 l -3.09045,1.70094 -16.27896,-9.4714 c -8.95343,-5.20927 -16.27896,-9.56962 -16.27896,-9.68966 0,-0.24358 5.39506,-2.83048 5.89791,-2.82802 0.17589,8.4e-4 2.58024,1.25626 5.343,2.78979 2.76275,1.53352 5.06072,2.67564 5.10659,2.53804 0.0459,-0.1376 0.52565,-0.88322 1.0662,-1.65694 2.48957,-3.56351 7.9991,-6.42363 15.27737,-7.93082 3.81493,-0.79 12.37069,-0.99346 16.4695099,-0.39165 8.95491,1.31481 15.8335602,4.65884 18.2416601,8.86813 0.37942,0.66321 0.71483,1.24209 0.74536,1.28639 0.0305,0.0443 2.19447,-1.11232 4.80876,-2.57027 l 4.75325,-2.65082 3.21144,1.37269 c 2.45269,1.04837 3.1339,1.44332 2.88323,1.67161 -0.26215,0.23872 -100.68163,58.689904 -104.57407,60.869434 l -1.05833,0.5926 z" />
    <g
       id="g28555"
       transform="matrix(1.566534,0,0,1.566534,202.5183,-413.38684)"
       style="stroke-width:0.638352">
      <path
         id="path9880"
         style="fill:#ff700d;fill-opacity:1;stroke-width:2.41267"
         d="m 200.11914,1243.957 v 41.0938 41.0957 h 10.5 10.5 v -12.8535 -12.8535 l 16.75,-0.5411 c 19.64149,-0.633 23.26146,-1.6879 29.28516,-8.5312 12.10337,-13.7502 7.53063,-37.7953 -8.53516,-44.8789 -3.419,-1.5075 -7.95809,-1.82 -31.25,-2.1485 z m 21,19.1895 h 12.54492 c 11.98655,0 12.65481,0.1079 15,2.4531 3.89167,3.8917 2.5305,12.8063 -2.23242,14.6172 -1.34332,0.5107 -7.58774,0.9297 -13.87695,0.9297 h -11.43555 v -9 z"
         transform="scale(0.26458333)" />
      <path
         id="path9872"
         style="fill:#ff700d;fill-opacity:1;stroke-width:2.41267"
         d="m -5.8808594,1244.1465 v 41 40.998 H 19.4375 c 28.901707,0 33.152129,-0.7192 39.814453,-6.7383 7.352239,-6.6423 11.045377,-17.7103 11.117188,-33.3124 0.0906,-19.6691 -5.847691,-32.2486 -17.896485,-37.9122 -6.451842,-3.0327 -15.577191,-3.9949 -38.103515,-4.0175 z m 21.0000004,18.8223 10.929687,0.3378 c 12.180964,0.3772 14.764744,1.4826 18.570313,7.9434 1.673045,2.8403 2,5.195 2,14.3965 0,12.074 -1.242644,15.7337 -6.722657,19.8183 -2.235288,1.6661 -4.692362,2.1094 -13.75,2.4825 l -11.027343,0.455 v -22.7168 z"
         transform="scale(0.26458333)" />
      <path
         id="path9866"
         style="fill:#ff700d;fill-opacity:1;stroke-width:2.41267"
         d="m -89.880859,1243.9844 v 41.1347 41.1348 l 30.25,-0.3047 c 29.706669,-0.2986 30.316461,-0.3456 34.007812,-2.6406 5.157581,-3.2067 8.805329,-9.7637 9.462891,-17.0156 0.637682,-7.0324 -0.834346,-12.2372 -4.941406,-17.4766 l -3.001954,-3.8301 2.572266,-2.6836 c 9.627213,-10.0486 6.218225,-29.2464 -6.289062,-35.4101 -4.350879,-2.1442 -5.878057,-2.261 -33.310547,-2.5762 z m 22,19.1621 h 12.308593 c 14.027112,0 16.025391,0.749 16.025391,6.0137 0,2.2247 -0.740701,3.8963 -2.277344,5.1406 -1.927861,1.561 -4.103578,1.8457 -14.167969,1.8457 h -11.888671 v -6.5 z m 0,32 h 12.5 c 11.166689,0 12.713341,0.2133 14.5,2 2.511836,2.5117 2.539922,5.1094 0.08984,8.1387 -1.793574,2.2175 -2.673178,2.3799 -14.5,2.6914 l -12.589843,0.332 v -6.582 z"
         transform="scale(0.26458333)" />
      <path
         style="fill:#ff700d;fill-opacity:1;stroke-width:0.638352"
         d="m 99.794405,325.97392 c -1.17242,-1.32694 -2.13167,-2.51756 -2.13167,-2.64584 0,-0.12827 1.05743,-0.23322 2.349835,-0.23322 h 2.34985 l 0.73914,0.96906 0.73915,0.96907 0.81361,-0.96908 0.81362,-0.96907 2.3151,1e-5 c 1.34092,0 2.3151,0.10949 2.3151,0.2602 0,0.1431 -0.96363,1.33372 -2.14141,2.64583 l -2.14141,2.38565 h -1.94462 -1.94462 z"
         id="path9900" />
      <path
         style="fill:#ff700d;fill-opacity:1;stroke-width:0.638352"
         d="m 144.22939,340.02819 v -10.84791 h 2.90402 2.90402 l 0.0726,4.37155 0.0725,4.37154 3.39168,-4.37154 3.39167,-4.37155 h 3.70154 c 2.88933,0 3.65856,0.0726 3.50564,0.33073 -0.10775,0.1819 -2.07931,2.55689 -4.38124,5.27777 -2.30193,2.72087 -4.18533,5.07325 -4.18533,5.2275 0,0.15425 1.84735,2.63105 4.10522,5.504 l 4.10523,5.22354 -3.49657,0.0742 c -1.92311,0.0408 -3.63311,0.0218 -3.8,-0.0422 -0.16689,-0.064 -1.66117,-2.02295 -3.32064,-4.35314 l -3.0172,-4.23669 -0.0725,4.34509 -0.0726,4.34509 h -2.90402 -2.90402 z"
         id="path9892" />
      <path
         style="fill:#ff700d;fill-opacity:1;stroke-width:0.638352"
         d="m 121.73981,340.02819 v -10.84791 l 3.37344,0.007 3.37344,0.007 3.43958,6.4714 3.43958,6.4714 0.0708,-6.47861 0.0708,-6.47862 h 2.7735 2.7735 v 10.85583 10.85582 l -3.33243,-0.074 -3.33243,-0.074 -3.48059,-6.24372 -3.48059,-6.24373 -0.0709,6.30987 -0.0709,6.30987 h -2.77342 -2.77342 z"
         id="path9890" />
      <path
         style="fill:#ff700d;fill-opacity:1;stroke-width:0.638352"
         d="m 112.74398,340.02819 v -10.84791 h 2.91041 2.91042 v 10.84791 10.84792 h -2.91042 -2.91041 z"
         id="path9888" />
      <path
         style="fill:#ff700d;fill-opacity:1;stroke-width:0.638352"
         d="m 98.183795,350.46973 c -0.6593,-0.20325 -1.70193,-0.80026 -2.31697,-1.32671 -2.39755,-2.05221 -3.35977,-5.02694 -3.16228,-9.77629 0.25128,-6.04293 2.62548,-9.13851 7.604015,-9.91443 0.94589,-0.14741 3.65456,-0.26893 6.01927,-0.27003 l 4.29948,-0.002 v 2.49168 2.49169 l -4.56406,0.088 c -5.15582,0.0994 -5.89736,0.3268 -6.720355,2.06075 -1.01059,2.1292 -0.67154,6.95598 0.59429,8.46034 0.876845,1.04207 2.436485,1.34087 6.998985,1.34087 h 3.69114 v 2.38125 2.38125 l -5.62239,-0.0184 c -4.0184,-0.0132 -5.964375,-0.12385 -6.821125,-0.38796 z"
         id="path9886" />
      <path
         style="fill:#ff700d;fill-opacity:1;stroke-width:0.638352"
         d="m 79.618995,350.50583 c -3.57984,-0.96371 -5.78291,-4.26023 -6.20802,-9.28919 -0.42657,-5.04631 1.78333,-9.66741 5.41439,-11.32199 1.11312,-0.50722 1.81456,-0.57671 6.73268,-0.66704 l 5.49011,-0.10082 v 2.54027 2.54028 l -4.16719,0.0149 c -2.50936,0.009 -4.52574,0.14057 -5.06845,0.33073 -0.99138,0.34738 -1.75924,1.24426 -2.0259,2.36632 l -0.17292,0.7276 h 5.71723 5.71723 v 2.51354 2.51355 h -5.70638 -5.70637 l 0.17767,0.59531 c 0.67735,2.26956 1.63754,2.65643 6.9356,2.79442 l 4.29948,0.11198 v 2.35018 2.35019 l -5.09323,-0.0179 c -3.21798,-0.0113 -5.55077,-0.14103 -6.33593,-0.3524 z"
         id="path9884" />
      <path
         style="fill:#ff700d;fill-opacity:1;stroke-width:0.638352"
         d="m 30.987735,348.52693 v -2.37815 l 6.19049,-0.0837 c 5.64826,-0.0764 6.23923,-0.12789 6.74688,-0.58777 0.99593,-0.90222 0.59611,-2.2886 -0.80043,-2.77543 -0.46135,-0.16083 -2.34726,-0.29242 -4.1909,-0.29242 -4.2917,0 -5.63734,-0.37149 -7.10225,-1.96073 -1.30695,-1.41787 -1.73938,-2.85687 -1.57145,-5.22936 0.22898,-3.23505 2.03509,-5.27523 5.11677,-5.77989 0.86021,-0.14086 4.39175,-0.25681 7.84787,-0.25765 l 6.28385,-0.002 v 2.51354 2.51354 h -6.02654 c -6.66878,0 -7.20262,0.11573 -7.20262,1.5615 0,1.35967 0.52585,1.53226 5.15937,1.69338 4.44609,0.1546 5.53498,0.37827 6.94776,1.4272 1.374,1.02013 1.99375,2.51319 2.12007,5.1075 0.10119,2.07815 0.0515,2.35915 -0.65418,3.69965 -0.47953,0.91093 -1.18605,1.74771 -1.89887,2.24896 l -1.13518,0.79827 -7.91532,0.0806 -7.91532,0.0806 z"
         id="path9878" />
      <path
         style="fill:#ff700d;fill-opacity:1;stroke-width:0.638352"
         d="m 21.462735,340.02817 v -10.84791 h 2.91042 2.91041 v 10.84791 10.84792 h -2.91041 -2.91042 z"
         id="path9876" />
      <path
         style="fill:#ff700d;fill-opacity:1;stroke-width:0.638352"
         d="m -39.391435,350.40814 c -1.96631,-0.57462 -4.15096,-2.72084 -5.04674,-4.95796 -0.56438,-1.40949 -0.63487,-1.99686 -0.63487,-5.28972 0,-3.29222 0.0706,-3.88071 0.63484,-5.29166 0.77999,-1.95047 3.31275,-4.59859 4.91448,-5.13834 0.69304,-0.23354 2.95329,-0.39927 6.54844,-0.48016 l 5.4901,-0.12351 v 2.51885 2.51885 l -4.69635,0.0876 c -3.95458,0.0737 -4.80484,0.16129 -5.38318,0.5543 -0.74258,0.50462 -1.29755,1.49855 -1.29755,2.32384 0,0.49655 0.22208,0.51672 5.68854,0.51672 h 5.68854 v 2.51354 2.51355 h -5.68854 c -6.26642,0 -6.19948,-0.0206 -5.23714,1.60854 0.8231,1.3934 1.85994,1.67263 6.6262,1.7845 l 4.29948,0.10092 v 2.35406 2.35406 l -5.22552,-0.0214 c -3.96919,-0.0162 -5.57538,-0.12359 -6.68073,-0.44661 z"
         id="path9864" />
      <path
         style="fill:#ff700d;fill-opacity:1;stroke-width:0.638352"
         d="m -74.918321,340.353 c -1.859008,-5.7812 -3.377055,-10.66011 -3.373438,-10.84201 0.0049,-0.24386 0.760665,-0.33073 2.877529,-0.33073 h 2.870955 l 1.95769,6.61332 c 1.07673,3.63733 2.01723,6.61374 2.08999,6.61424 0.0728,5.3e-4 0.9545,-2.97549 1.95942,-6.61332 l 1.82714,-6.61424 h 2.95534 2.95533 l 1.83212,6.6143 c 1.00766,3.63787 1.89164,6.61361 1.9644,6.61275 0.0728,-7.9e-4 1.01662,-2.97729 2.09748,-6.6143 l 1.96519,-6.61275 h 2.86345 c 2.12521,0 2.86346,0.0859 2.86346,0.33309 0,0.1832 -1.52243,5.035 -3.38318,10.78177 l -3.38318,10.44868 -3.05962,0.0742 -3.05962,0.0742 -1.79075,-6.29191 c -0.98491,-3.46055 -1.81406,-6.31947 -1.84256,-6.35314 -0.0285,-0.0337 -0.87295,2.79405 -1.87654,6.28385 l -1.82471,6.34509 -3.05294,-0.006 -3.05294,-0.006 z"
         id="path9700" />
      <g
         aria-label="â"
         id="text12262"
         style="font-weight:bold;font-size:13.5292px;font-family:'Liberation Sans Narrow';-inkscape-font-specification:'Liberation Sans Narrow Bold';text-align:end;letter-spacing:3.1709px;text-anchor:end;fill:#ff700d;fill-opacity:1;stroke:#000000;stroke-width:0;stroke-linecap:round;stroke-linejoin:round;stroke-miterlimit:4;stroke-dasharray:none">
        <g
           id="path16204"
           style="fill:#ff700d;fill-opacity:1;stroke-width:0;stroke-miterlimit:4;stroke-dasharray:none">
          <path
             style="color:#000000;-inkscape-font-specification:'Symbol Bold';fill:#ff700d;fill-opacity:1;stroke:none;stroke-width:0;stroke-linecap:butt;stroke-linejoin:miter;stroke-miterlimit:4;stroke-dasharray:none"
             d="m 174.11575,333.82825 q 0,1.94218 -1.37406,3.31624 -1.36746,1.37406 -3.30964,1.37406 -1.94218,0 -3.31624,-1.37406 -1.37405,-1.37406 -1.37405,-3.31624 0,-1.94218 1.37405,-3.31623 1.37406,-1.37406 3.31624,-1.37406 1.94218,0 3.30964,1.37406 1.37406,1.37405 1.37406,3.31623 z m -0.52188,0 q 0,-1.72418 -1.22212,-2.9463 -1.21552,-1.22212 -2.9463,-1.22212 -1.72418,0 -2.9463,1.22212 -1.21552,1.22212 -1.21552,2.9463 0,1.72418 1.21552,2.9463 1.22212,1.22212 2.9463,1.22212 1.73078,0 2.9463,-1.22212 1.22212,-1.22212 1.22212,-2.9463 z m -5.90581,-2.68866 h 1.96199 q 1.06358,0 1.526,0.38976 0.46243,0.38975 0.46243,0.97109 0,0.61436 -0.48225,1.03054 -0.35012,0.29727 -1.02393,0.39637 0.30387,0.14533 0.42939,0.25763 0.12551,0.1123 0.38976,0.47564 0.26424,0.36333 0.40297,0.60775 l 0.51527,0.91825 h -0.80594 l -0.48885,-0.83237 q -0.56151,-0.97109 -0.85879,-1.16266 -0.29066,-0.19158 -0.95787,-0.19158 h -0.41619 v 2.18661 h -0.65399 z m 0.65399,0.53509 v 1.75721 h 0.64079 q 1.05697,0 1.40049,-0.1057 0.25103,-0.0727 0.40957,-0.29727 0.16515,-0.2246 0.16515,-0.46903 0,-0.36333 -0.27745,-0.62097 -0.27085,-0.26424 -1.38067,-0.26424 z"
             id="path16281" />
          <path
             style="color:#000000;-inkscape-font-specification:'Symbol Bold';fill:#ff700d;fill-opacity:1;stroke:none;stroke-width:0;stroke-linecap:butt;stroke-linejoin:miter;stroke-miterlimit:4;stroke-dasharray:none"
             d="m 169.43164,328.82422 c -1.3686,0 -2.56893,0.49862 -3.53711,1.4668 -0.96817,0.96817 -1.46484,2.16851 -1.46484,3.5371 0,1.3686 0.49667,2.56894 1.46484,3.53711 0.96818,0.96818 2.16851,1.4668 3.53711,1.4668 1.3686,0 2.56735,-0.49824 3.53125,-1.4668 0.96818,-0.96817 1.4668,-2.16851 1.4668,-3.53711 0,-1.36859 -0.49862,-2.56893 -1.4668,-3.5371 -0.9639,-0.96856 -2.16265,-1.4668 -3.53125,-1.4668 z m -0.006,1.14844 c 1.08018,0 1.96665,0.36877 2.72461,1.13086 0.76271,0.7627 1.13086,1.64911 1.13086,2.7246 0,1.0755 -0.36815,1.96191 -1.13086,2.72461 a 0.31303129,0.31303129 0 0 0 0,0.002 c -0.75796,0.76208 -1.64443,1.1289 -2.72461,1.1289 -1.0755,0 -1.9619,-0.36815 -2.72461,-1.13086 -0.75762,-0.76229 -1.125,-1.64928 -1.125,-2.72461 0,-1.07589 0.36656,-1.96204 1.125,-2.7246 0.76271,-0.76271 1.64911,-1.13086 2.72461,-1.13086 z m -1.73828,0.85351 a 0.31303129,0.31303129 0 0 0 -0.3125,0.3125 v 5.04883 a 0.31303129,0.31303129 0 0 0 0.3125,0.3125 h 0.6543 a 0.31303129,0.31303129 0 0 0 0.3125,-0.3125 v -1.875 h 0.10351 c 0.41485,0 0.68327,0.0735 0.78516,0.14062 a 0.31303129,0.31303129 0 0 0 0.004,0.002 c 0.0712,0.0459 0.391,0.42225 0.75782,1.05664 a 0.31303129,0.31303129 0 0 0 0,0.002 l 0.48828,0.83203 a 0.31303129,0.31303129 0 0 0 0.27148,0.1543 h 0.80469 a 0.31303129,0.31303129 0 0 0 0.27344,-0.4668 l -0.51563,-0.91797 a 0.31303129,0.31303129 0 0 0 0,-0.002 c -0.10173,-0.17924 -0.2414,-0.38857 -0.42187,-0.63672 -0.16774,-0.23064 -0.28622,-0.37402 -0.4043,-0.48633 0.18428,-0.0747 0.41874,-0.10195 0.55859,-0.2207 a 0.31303129,0.31303129 0 0 0 0.002,-0.002 c 0.37917,-0.32723 0.58984,-0.77611 0.58984,-1.26758 0,-0.47055 -0.20729,-0.90168 -0.57422,-1.21094 -0.3987,-0.33605 -0.97927,-0.46289 -1.72656,-0.46289 z m 0.31445,0.62695 H 168.25 a 0.31303129,0.31303129 0 0 0 -0.2207,0.22071 v 1.75781 a 0.31303129,0.31303129 0 0 0 0.2832,0.2832 A 0.31303129,0.31303129 0 0 0 168.0293,334 v 1.87305 h -0.0274 z m 2.89258,0.25586 0.004,0.006 c -4.3e-4,-4.1e-4 -0.002,4.2e-4 -0.002,0 -0.002,-0.001 -3.7e-4,-0.004 -0.002,-0.006 z m 0.0195,0.0469 c 0.0108,0.008 0.0506,0.005 0.0606,0.0137 0.24965,0.21041 0.35156,0.4259 0.35156,0.73047 0,0.11107 -0.1,0.17594 -0.12695,0.26953 0.0163,-0.0724 0.0723,-0.13443 0.0723,-0.20898 0,-0.30435 -0.14212,-0.58652 -0.35742,-0.80469 z m -2.25976,0.23242 h 0.64648 c 0.35752,0 0.64015,0.0223 0.83984,0.0606 0.1997,0.0382 0.30847,0.0998 0.32227,0.11328 a 0.31303129,0.31303129 0 0 0 0.004,0.006 c 0.1312,0.12184 0.17773,0.23003 0.17773,0.39258 0,0.0925 -0.0255,0.17713 -0.10351,0.2832 a 0.31303129,0.31303129 0 0 0 -0.004,0.004 c -0.07,0.0991 -0.13869,0.14832 -0.24024,0.17773 a 0.31303129,0.31303129 0 0 0 -0.006,0.002 c -0.14277,0.0439 -0.61439,0.0918 -1.3086,0.0918 h -0.32812 z m 2.30859,1.2832 c -0.007,0.006 -0.003,0.0154 -0.01,0.0215 -3.3e-4,2.9e-4 -0.002,-2.9e-4 -0.002,0 -5.3e-4,4.6e-4 5.3e-4,10e-4 0,0.002 -0.008,0.007 -0.0325,0.007 -0.041,0.0137 0.0153,-0.0157 0.0383,-0.0204 0.0527,-0.0371 z m -0.91992,0.38868 a 0.31303129,0.31303129 0 0 0 -0.19922,0.25976 c -0.21509,-0.13081 -0.5167,-0.15666 -0.83203,-0.17773 0.48735,-6.3e-4 0.74849,-0.0418 1.03125,-0.082 z m 0.13476,0.65429 c 0.0592,0.0358 0.15593,0.0857 0.17579,0.10352 0.04,0.0358 0.17437,0.19021 0.3457,0.42578 0.17185,0.23629 0.29957,0.43342 0.38281,0.58008 l 0.25391,0.44922 h -0.0937 l -0.39649,-0.67578 v -0.002 c -0.26495,-0.45816 -0.45972,-0.65052 -0.66797,-0.88086 z"
             id="path16283" />
        </g>
      </g>
    </g>
    <text
       xml:space="preserve"
       style="font-style:normal;font-variant:normal;font-weight:900;font-stretch:normal;font-size:22.5778px;line-height:123%;font-family:Arial;-inkscape-font-specification:'Arial Heavy';text-align:end;text-decoration-color:#000000;letter-spacing:0.264583px;text-anchor:end;fill:#004a93;fill-opacity:1;stroke:#000000;stroke-width:0.0264583;stroke-linecap:round;stroke-linejoin:round;stroke-opacity:1;-inkscape-stroke:none;stop-color:#000000"
       x="363.0668"
       y="166.17325"
       id="text1648"><tspan
         sodipodi:role="line"
         id="tspan1646"
         style="font-style:normal;font-variant:normal;font-weight:900;font-stretch:normal;font-family:Arial;-inkscape-font-specification:'Arial Heavy';fill:#004a93;fill-opacity:1;stroke-width:0.0264583"
         x="363.33136"
         y="166.17325">Powered by EUROWAG</tspan></text>
  </g>
</svg>
